<?xml version="1.0" encoding="UTF-8"?>
<svg height="600" width="800" xmlns="http://www.w3.org/2000/svg" xmlns:xlink="http://www.w3.org/1999/xlink">
    <g id="Notes" font-family="LucidaGrande, 'Lucida Grande', sans-serif" font-size="13">
        <rect fill="white" height="600.0" width="800.0" x="0.0" y="0.0" />
        <g font-size="13">
            <text x="18.0" y="176.0">Small</text>
            <text x="18.0" y="376.0">Medium</text>
            <text x="18.0" y="576.0">Large</text>
        </g>
        <g font-size="9">
            <text x="250.0" y="30.0">Ultralight</text>
            <text x="450.0" y="30.0">Regular</text>
            <text x="650.0" y="30.0">Black</text>
            <text id="template-version" fill="#505050" text-anchor="end" x="785.0" y="575.0">Template v.3.0</text>
            <a href="https://github.com/swhitty/SwiftDraw">
                <text fill="#505050" text-anchor="end" x="785.0" y="590.0">https://github.com/swhitty/SwiftDraw</text>
            </a>
        </g>
    </g>
    <g id="Guides" stroke="rgb(39, 170, 225)" stroke-width="0.5">
        <path id="Capline-S" d="M18,76 l800,0" />
        <path id="H-reference" d="M85,145.755 L87.685,145.755 L113.369,79.287 L114.052,79.287 L114.052,76 L112.148,76 L85,145.755 Z M95.693,121.536 L130.996,121.536 L130.263,119.313 L96.474,119.313 L95.693,121.536 Z M139.15,145.755 L141.787,145.755 L114.638,76 L113.466,76 L113.466,79.287 L139.15,145.755 Z" stroke="none" transform="translate(0,0)" />
        <path id="Baseline-S" d="M18,146 l800,0" />
        <path id="left-margin-Ultralight-S" d="M164.510,56 l0,110" />
        <path id="right-margin-Ultralight-S" d="M365.532,56 l0,110" />
        <path id="left-margin-Regular-S" d="M364.510,56 l0,110" />
        <path id="right-margin-Regular-S" d="M565.532,56 l0,110" />
        <path id="left-margin-Black-S" d="M564.510,56 l0,110" />
        <path id="right-margin-Black-S" d="M765.532,56 l0,110" />
        <path id="Capline-M" d="M18,276 l800,0" />
        <path id="Baseline-M" d="M18,346 l800,0" />
        <path id="Capline-L" d="M18,476 l800,0" />
        <path id="Baseline-L" d="M18,546 l800,0" />
    </g>
    <g id="Symbols">
        <g id="Ultralight-S" transform="translate(0,0)">
            <path d="M 169.660 119.825 L 179.817 120.017 C 179.849 120.017 179.882 120.017 179.916 120.017 C 192.491 120.017 200.162 115.980 207.165 105.477 C 208.354 103.693 209.494 101.774 210.828 99.370 C 211.199 98.702 211.570 98.022 212.054 97.130 C 212.015 97.204 212.962 95.455 213.220 94.983 C 214.124 93.324 214.771 92.172 215.396 91.130 C 216.587 89.146 217.571 87.793 218.410 86.978 C 218.732 86.667 218.988 86.475 219.161 86.390 C 219.179 86.381 219.193 86.374 219.200 86.372 C 219.198 86.374 219.191 86.374 219.182 86.379 C 219.142 86.388 219.092 86.395 219.041 86.395 C 218.861 86.395 218.638 86.337 218.451 86.236 C 218.389 86.199 218.343 86.169 218.320 86.148 C 218.334 86.160 218.368 86.197 218.414 86.256 C 218.834 86.793 219.324 87.909 219.790 89.565 C 220.721 92.881 221.327 97.160 222.193 105.608 C 222.267 106.343 222.544 109.069 222.603 109.657 C 222.769 111.283 222.908 112.588 223.046 113.855 C 224.154 124.148 225.689 131.522 227.825 136.536 C 229.028 139.359 230.473 141.569 232.275 143.175 C 234.346 145.025 236.828 146.000 239.519 146.000 C 242.635 146.000 245.347 144.516 247.718 142.009 C 249.465 140.163 251.080 137.707 252.693 134.598 C 255.119 129.916 257.221 124.582 260.617 115.033 C 261.666 112.097 262.666 109.832 263.565 108.311 C 263.938 107.680 264.265 107.226 264.514 106.958 C 264.553 106.919 264.583 106.889 264.606 106.868 C 264.613 106.861 264.611 106.864 264.597 106.873 C 264.505 106.940 264.367 107.018 264.175 107.094 C 263.530 107.345 262.726 107.362 262.007 107.094 C 261.730 106.993 261.507 106.864 261.336 106.730 C 261.290 106.693 261.253 106.661 261.228 106.636 C 261.221 106.629 261.224 106.633 261.235 106.645 C 261.396 106.845 261.636 107.251 261.910 107.857 C 262.256 108.620 262.611 109.604 262.966 110.800 L 262.938 110.696 C 263.219 111.719 264.436 116.219 264.765 117.417 C 266.696 124.429 268.143 128.932 269.844 132.686 C 270.985 135.202 272.190 137.223 273.581 138.781 C 275.552 140.990 277.955 142.332 280.785 142.332 C 282.764 142.332 284.628 141.691 286.292 140.539 C 287.640 139.608 288.841 138.357 289.944 136.817 C 291.760 134.280 293.380 130.861 294.896 126.556 C 297.454 119.289 299.731 109.435 301.802 97.359 C 302.083 95.716 303.245 92.639 304.565 90.208 C 305.210 89.022 305.832 88.100 306.284 87.621 C 306.344 87.554 306.388 87.515 306.402 87.503 C 306.351 87.545 306.266 87.602 306.132 87.671 C 305.457 88.024 304.528 88.183 303.484 87.899 C 304.171 88.086 304.890 88.130 305.595 88.026 C 305.494 88.040 305.402 88.051 305.319 88.058 C 305.190 88.068 305.088 88.068 305.010 88.061 C 304.964 88.056 304.936 88.051 304.920 88.047 C 304.936 88.051 304.964 88.063 305.010 88.091 C 305.107 88.148 305.219 88.238 305.351 88.376 C 305.632 88.664 305.932 89.091 306.231 89.688 C 306.830 90.883 307.448 92.736 308.282 95.778 C 308.429 96.312 309.505 100.340 309.851 101.573 C 311.310 106.795 312.630 110.399 314.441 113.456 C 315.665 115.523 317.075 117.222 318.755 118.517 C 320.764 120.065 323.089 120.966 325.638 121.107 C 329.002 121.293 332.926 121.376 337.302 121.369 C 342.330 121.365 347.699 121.243 353.077 121.044 C 355.008 120.975 356.806 120.897 358.421 120.821 C 358.988 120.796 359.493 120.770 359.928 120.747 C 360.080 120.740 360.216 120.733 360.329 120.726 C 360.398 120.724 360.447 120.720 360.472 120.720 C 363.339 120.561 365.532 118.111 365.376 115.245 C 365.219 112.380 362.767 110.184 359.903 110.341 C 359.882 110.343 359.841 110.346 359.776 110.348 C 359.670 110.355 359.541 110.362 359.396 110.369 C 358.974 110.389 358.483 110.415 357.933 110.440 C 356.352 110.516 354.589 110.590 352.695 110.659 C 347.432 110.853 342.178 110.972 337.291 110.977 C 333.092 110.984 329.357 110.903 326.212 110.730 C 325.813 110.707 325.484 110.581 325.099 110.283 C 324.564 109.871 323.981 109.168 323.382 108.161 C 322.156 106.090 321.092 103.179 319.859 98.773 C 319.534 97.612 318.467 93.616 318.303 93.026 C 317.294 89.351 316.517 87.017 315.520 85.031 C 314.755 83.505 313.847 82.205 312.805 81.134 C 311.349 79.634 309.692 78.638 307.959 78.108 C 306.694 77.721 305.528 77.618 304.519 77.696 C 304.365 77.707 304.222 77.724 304.095 77.742 L 304.844 82.885 L 306.203 77.869 C 304.478 77.401 302.795 77.687 301.311 78.463 C 300.348 78.968 299.503 79.657 298.708 80.505 C 297.558 81.731 296.468 83.344 295.433 85.249 C 293.606 88.611 292.050 92.729 291.560 95.603 C 289.578 107.152 287.419 116.498 285.091 123.107 C 283.875 126.561 282.647 129.158 281.494 130.764 C 281.040 131.398 280.651 131.803 280.381 131.992 C 280.345 132.015 280.349 132.015 280.391 131.999 C 280.501 131.962 280.640 131.939 280.785 131.939 C 281.114 131.939 281.405 132.020 281.591 132.124 C 281.614 132.135 281.610 132.133 281.584 132.112 C 281.520 132.057 281.435 131.974 281.335 131.863 C 280.755 131.211 280.054 130.036 279.310 128.397 C 277.902 125.289 276.577 121.167 274.787 114.659 C 274.464 113.489 273.247 108.991 272.957 107.940 C 272.948 107.908 272.939 107.873 272.929 107.839 C 271.918 104.437 270.766 101.889 269.291 100.080 C 268.275 98.833 267.067 97.886 265.613 97.347 C 263.906 96.716 262.090 96.753 260.410 97.407 C 258.053 98.324 256.265 100.237 254.619 103.020 C 253.336 105.193 252.082 108.030 250.827 111.544 C 247.589 120.650 245.603 125.695 243.467 129.815 C 242.261 132.135 241.144 133.836 240.169 134.868 C 239.794 135.264 239.487 135.511 239.277 135.626 C 239.247 135.642 239.243 135.644 239.266 135.638 C 239.335 135.619 239.423 135.605 239.519 135.605 C 239.418 135.605 239.388 135.594 239.192 135.421 C 238.667 134.951 238.035 133.985 237.386 132.462 C 235.738 128.593 234.385 122.102 233.376 112.735 C 233.240 111.486 233.106 110.207 232.943 108.601 C 232.883 108.021 232.606 105.290 232.530 104.548 C 231.602 95.478 230.947 90.858 229.795 86.759 C 228.998 83.915 227.998 81.648 226.613 79.869 C 224.714 77.433 222.106 76.000 219.041 76.000 C 216.059 76.000 213.460 77.300 211.170 79.523 C 209.559 81.088 208.098 83.095 206.485 85.784 C 205.771 86.975 205.061 88.236 204.093 90.012 C 203.828 90.496 202.876 92.257 202.920 92.176 C 202.450 93.040 202.093 93.692 201.743 94.326 C 200.533 96.504 199.524 98.200 198.517 99.711 C 193.456 107.302 189.041 109.624 179.916 109.624 L 180.013 109.624 L 169.856 109.435 C 166.987 109.380 164.616 111.664 164.563 114.532 C 164.510 117.401 166.791 119.772 169.660 119.825 Z" />
        </g>
        <g id="Regular-S" transform="translate(0,0)">
            <path d="M 369.660 119.825 L 379.817 120.017 C 379.849 120.017 379.882 120.017 379.916 120.017 C 392.491 120.017 400.162 115.980 407.165 105.477 C 408.354 103.693 409.494 101.774 410.828 99.370 C 411.199 98.702 411.570 98.022 412.054 97.130 C 412.015 97.204 412.962 95.455 413.220 94.983 C 414.124 93.324 414.771 92.172 415.396 91.130 C 416.587 89.146 417.571 87.793 418.410 86.978 C 418.732 86.667 418.988 86.475 419.161 86.390 C 419.179 86.381 419.193 86.374 419.200 86.372 C 419.198 86.374 419.191 86.374 419.182 86.379 C 419.142 86.388 419.092 86.395 419.041 86.395 C 418.861 86.395 418.638 86.337 418.451 86.236 C 418.389 86.199 418.343 86.169 418.320 86.148 C 418.334 86.160 418.368 86.197 418.414 86.256 C 418.834 86.793 419.324 87.909 419.790 89.565 C 420.721 92.881 421.327 97.160 422.193 105.608 C 422.267 106.343 422.544 109.069 422.603 109.657 C 422.769 111.283 422.908 112.588 423.046 113.855 C 424.154 124.148 425.689 131.522 427.825 136.536 C 429.028 139.359 430.473 141.569 432.275 143.175 C 434.346 145.025 436.828 146.000 439.519 146.000 C 442.635 146.000 445.347 144.516 447.718 142.009 C 449.465 140.163 451.080 137.707 452.693 134.598 C 455.119 129.916 457.221 124.582 460.617 115.033 C 461.666 112.097 462.666 109.832 463.565 108.311 C 463.938 107.680 464.265 107.226 464.514 106.958 C 464.553 106.919 464.583 106.889 464.606 106.868 C 464.613 106.861 464.611 106.864 464.597 106.873 C 464.505 106.940 464.367 107.018 464.175 107.094 C 463.530 107.345 462.726 107.362 462.007 107.094 C 461.730 106.993 461.507 106.864 461.336 106.730 C 461.290 106.693 461.253 106.661 461.228 106.636 C 461.221 106.629 461.224 106.633 461.235 106.645 C 461.396 106.845 461.636 107.251 461.910 107.857 C 462.256 108.620 462.611 109.604 462.966 110.800 L 462.938 110.696 C 463.219 111.719 464.436 116.219 464.765 117.417 C 466.696 124.429 468.143 128.932 469.844 132.686 C 470.985 135.202 472.190 137.223 473.581 138.781 C 475.552 140.990 477.955 142.332 480.785 142.332 C 482.764 142.332 484.628 141.691 486.292 140.539 C 487.640 139.608 488.841 138.357 489.944 136.817 C 491.760 134.280 493.380 130.861 494.896 126.556 C 497.454 119.289 499.731 109.435 501.802 97.359 C 502.083 95.716 503.245 92.639 504.565 90.208 C 505.210 89.022 505.832 88.100 506.284 87.621 C 506.344 87.554 506.388 87.515 506.402 87.503 C 506.351 87.545 506.266 87.602 506.132 87.671 C 505.457 88.024 504.528 88.183 503.484 87.899 C 504.171 88.086 504.890 88.130 505.595 88.026 C 505.494 88.040 505.402 88.051 505.319 88.058 C 505.190 88.068 505.088 88.068 505.010 88.061 C 504.964 88.056 504.936 88.051 504.920 88.047 C 504.936 88.051 504.964 88.063 505.010 88.091 C 505.107 88.148 505.219 88.238 505.351 88.376 C 505.632 88.664 505.932 89.091 506.231 89.688 C 506.830 90.883 507.448 92.736 508.282 95.778 C 508.429 96.312 509.505 100.340 509.851 101.573 C 511.310 106.795 512.630 110.399 514.441 113.456 C 515.665 115.523 517.075 117.222 518.755 118.517 C 520.764 120.065 523.089 120.966 525.638 121.107 C 529.002 121.293 532.926 121.376 537.302 121.369 C 542.330 121.365 547.699 121.243 553.077 121.044 C 555.008 120.975 556.806 120.897 558.421 120.821 C 558.988 120.796 559.493 120.770 559.928 120.747 C 560.080 120.740 560.216 120.733 560.329 120.726 C 560.398 120.724 560.447 120.720 560.472 120.720 C 563.339 120.561 565.532 118.111 565.376 115.245 C 565.219 112.380 562.767 110.184 559.903 110.341 C 559.882 110.343 559.841 110.346 559.776 110.348 C 559.670 110.355 559.541 110.362 559.396 110.369 C 558.974 110.389 558.483 110.415 557.933 110.440 C 556.352 110.516 554.589 110.590 552.695 110.659 C 547.432 110.853 542.178 110.972 537.291 110.977 C 533.092 110.984 529.357 110.903 526.212 110.730 C 525.813 110.707 525.484 110.581 525.099 110.283 C 524.564 109.871 523.981 109.168 523.382 108.161 C 522.156 106.090 521.092 103.179 519.859 98.773 C 519.534 97.612 518.467 93.616 518.303 93.026 C 517.294 89.351 516.517 87.017 515.520 85.031 C 514.755 83.505 513.847 82.205 512.805 81.134 C 511.349 79.634 509.692 78.638 507.959 78.108 C 506.694 77.721 505.528 77.618 504.519 77.696 C 504.365 77.707 504.222 77.724 504.095 77.742 L 504.844 82.885 L 506.203 77.869 C 504.478 77.401 502.795 77.687 501.311 78.463 C 500.348 78.968 499.503 79.657 498.708 80.505 C 497.558 81.731 496.468 83.344 495.433 85.249 C 493.606 88.611 492.050 92.729 491.560 95.603 C 489.578 107.152 487.419 116.498 485.091 123.107 C 483.875 126.561 482.647 129.158 481.494 130.764 C 481.040 131.398 480.651 131.803 480.381 131.992 C 480.345 132.015 480.349 132.015 480.391 131.999 C 480.501 131.962 480.640 131.939 480.785 131.939 C 481.114 131.939 481.405 132.020 481.591 132.124 C 481.614 132.135 481.610 132.133 481.584 132.112 C 481.520 132.057 481.435 131.974 481.335 131.863 C 480.755 131.211 480.054 130.036 479.310 128.397 C 477.902 125.289 476.577 121.167 474.787 114.659 C 474.464 113.489 473.247 108.991 472.957 107.940 C 472.948 107.908 472.939 107.873 472.929 107.839 C 471.918 104.437 470.766 101.889 469.291 100.080 C 468.275 98.833 467.067 97.886 465.613 97.347 C 463.906 96.716 462.090 96.753 460.410 97.407 C 458.053 98.324 456.265 100.237 454.619 103.020 C 453.336 105.193 452.082 108.030 450.827 111.544 C 447.589 120.650 445.603 125.695 443.467 129.815 C 442.261 132.135 441.144 133.836 440.169 134.868 C 439.794 135.264 439.487 135.511 439.277 135.626 C 439.247 135.642 439.243 135.644 439.266 135.638 C 439.335 135.619 439.423 135.605 439.519 135.605 C 439.418 135.605 439.388 135.594 439.192 135.421 C 438.667 134.951 438.035 133.985 437.386 132.462 C 435.738 128.593 434.385 122.102 433.376 112.735 C 433.240 111.486 433.106 110.207 432.943 108.601 C 432.883 108.021 432.606 105.290 432.530 104.548 C 431.602 95.478 430.947 90.858 429.795 86.759 C 428.998 83.915 427.998 81.648 426.613 79.869 C 424.714 77.433 422.106 76.000 419.041 76.000 C 416.059 76.000 413.460 77.300 411.170 79.523 C 409.559 81.088 408.098 83.095 406.485 85.784 C 405.771 86.975 405.061 88.236 404.093 90.012 C 403.828 90.496 402.876 92.257 402.920 92.176 C 402.450 93.040 402.093 93.692 401.743 94.326 C 400.533 96.504 399.524 98.200 398.517 99.711 C 393.456 107.302 389.041 109.624 379.916 109.624 L 380.013 109.624 L 369.856 109.435 C 366.987 109.380 364.616 111.664 364.563 114.532 C 364.510 117.401 366.791 119.772 369.660 119.825 Z" />
        </g>
        <g id="Black-S" transform="translate(0,0)">
            <path d="M 569.660 119.825 L 579.817 120.017 C 579.849 120.017 579.882 120.017 579.916 120.017 C 592.491 120.017 600.162 115.980 607.165 105.477 C 608.354 103.693 609.494 101.774 610.828 99.370 C 611.199 98.702 611.570 98.022 612.054 97.130 C 612.015 97.204 612.962 95.455 613.220 94.983 C 614.124 93.324 614.771 92.172 615.396 91.130 C 616.587 89.146 617.571 87.793 618.410 86.978 C 618.732 86.667 618.988 86.475 619.161 86.390 C 619.179 86.381 619.193 86.374 619.200 86.372 C 619.198 86.374 619.191 86.374 619.182 86.379 C 619.142 86.388 619.092 86.395 619.041 86.395 C 618.861 86.395 618.638 86.337 618.451 86.236 C 618.389 86.199 618.343 86.169 618.320 86.148 C 618.334 86.160 618.368 86.197 618.414 86.256 C 618.834 86.793 619.324 87.909 619.790 89.565 C 620.721 92.881 621.327 97.160 622.193 105.608 C 622.267 106.343 622.544 109.069 622.603 109.657 C 622.769 111.283 622.908 112.588 623.046 113.855 C 624.154 124.148 625.689 131.522 627.825 136.536 C 629.028 139.359 630.473 141.569 632.275 143.175 C 634.346 145.025 636.828 146.000 639.519 146.000 C 642.635 146.000 645.347 144.516 647.718 142.009 C 649.465 140.163 651.080 137.707 652.693 134.598 C 655.119 129.916 657.221 124.582 660.617 115.033 C 661.666 112.097 662.666 109.832 663.565 108.311 C 663.938 107.680 664.265 107.226 664.514 106.958 C 664.553 106.919 664.583 106.889 664.606 106.868 C 664.613 106.861 664.611 106.864 664.597 106.873 C 664.505 106.940 664.367 107.018 664.175 107.094 C 663.530 107.345 662.726 107.362 662.007 107.094 C 661.730 106.993 661.507 106.864 661.336 106.730 C 661.290 106.693 661.253 106.661 661.228 106.636 C 661.221 106.629 661.224 106.633 661.235 106.645 C 661.396 106.845 661.636 107.251 661.910 107.857 C 662.256 108.620 662.611 109.604 662.966 110.800 L 662.938 110.696 C 663.219 111.719 664.436 116.219 664.765 117.417 C 666.696 124.429 668.143 128.932 669.844 132.686 C 670.985 135.202 672.190 137.223 673.581 138.781 C 675.552 140.990 677.955 142.332 680.785 142.332 C 682.764 142.332 684.628 141.691 686.292 140.539 C 687.640 139.608 688.841 138.357 689.944 136.817 C 691.760 134.280 693.380 130.861 694.896 126.556 C 697.454 119.289 699.731 109.435 701.802 97.359 C 702.083 95.716 703.245 92.639 704.565 90.208 C 705.210 89.022 705.832 88.100 706.284 87.621 C 706.344 87.554 706.388 87.515 706.402 87.503 C 706.351 87.545 706.266 87.602 706.132 87.671 C 705.457 88.024 704.528 88.183 703.484 87.899 C 704.171 88.086 704.890 88.130 705.595 88.026 C 705.494 88.040 705.402 88.051 705.319 88.058 C 705.190 88.068 705.088 88.068 705.010 88.061 C 704.964 88.056 704.936 88.051 704.920 88.047 C 704.936 88.051 704.964 88.063 705.010 88.091 C 705.107 88.148 705.219 88.238 705.351 88.376 C 705.632 88.664 705.932 89.091 706.231 89.688 C 706.830 90.883 707.448 92.736 708.282 95.778 C 708.429 96.312 709.505 100.340 709.851 101.573 C 711.310 106.795 712.630 110.399 714.441 113.456 C 715.665 115.523 717.075 117.222 718.755 118.517 C 720.764 120.065 723.089 120.966 725.638 121.107 C 729.002 121.293 732.926 121.376 737.302 121.369 C 742.330 121.365 747.699 121.243 753.077 121.044 C 755.008 120.975 756.806 120.897 758.421 120.821 C 758.988 120.796 759.493 120.770 759.928 120.747 C 760.080 120.740 760.216 120.733 760.329 120.726 C 760.398 120.724 760.447 120.720 760.472 120.720 C 763.339 120.561 765.532 118.111 765.376 115.245 C 765.219 112.380 762.767 110.184 759.903 110.341 C 759.882 110.343 759.841 110.346 759.776 110.348 C 759.670 110.355 759.541 110.362 759.396 110.369 C 758.974 110.389 758.483 110.415 757.933 110.440 C 756.352 110.516 754.589 110.590 752.695 110.659 C 747.432 110.853 742.178 110.972 737.291 110.977 C 733.092 110.984 729.357 110.903 726.212 110.730 C 725.813 110.707 725.484 110.581 725.099 110.283 C 724.562 109.871 723.981 109.168 723.382 108.161 C 722.156 106.090 721.092 103.179 719.859 98.773 C 719.534 97.612 718.467 93.616 718.303 93.026 C 717.294 89.351 716.517 87.017 715.520 85.031 C 714.755 83.505 713.847 82.205 712.805 81.134 C 711.349 79.634 709.692 78.638 707.959 78.108 C 706.694 77.721 705.528 77.618 704.519 77.696 C 704.365 77.707 704.222 77.724 704.095 77.742 L 704.844 82.885 L 706.203 77.869 C 704.478 77.401 702.795 77.687 701.311 78.463 C 700.348 78.968 699.503 79.657 698.708 80.505 C 697.558 81.731 696.468 83.344 695.433 85.249 C 693.606 88.611 692.050 92.729 691.560 95.603 C 689.578 107.152 687.419 116.498 685.091 123.107 C 683.875 126.561 682.647 129.158 681.494 130.764 C 681.040 131.398 680.651 131.803 680.381 131.992 C 680.345 132.015 680.349 132.015 680.393 131.999 C 680.501 131.962 680.640 131.939 680.785 131.939 C 681.114 131.939 681.405 132.020 681.591 132.124 C 681.614 132.135 681.610 132.133 681.584 132.112 C 681.520 132.057 681.435 131.974 681.335 131.863 C 680.755 131.211 680.054 130.036 679.310 128.397 C 677.902 125.289 676.577 121.167 674.787 114.659 C 674.464 113.489 673.247 108.991 672.957 107.940 C 672.948 107.908 672.939 107.873 672.929 107.839 C 671.918 104.437 670.766 101.889 669.291 100.080 C 668.275 98.833 667.067 97.886 665.613 97.347 C 663.906 96.716 662.090 96.753 660.410 97.407 C 658.053 98.324 656.265 100.237 654.619 103.020 C 653.336 105.193 652.082 108.030 650.827 111.544 C 647.589 120.650 645.603 125.695 643.467 129.815 C 642.261 132.135 641.144 133.836 640.169 134.868 C 639.794 135.264 639.487 135.511 639.277 135.626 C 639.247 135.642 639.243 135.644 639.266 135.638 C 639.335 135.619 639.423 135.605 639.519 135.605 C 639.418 135.605 639.388 135.594 639.192 135.421 C 638.667 134.951 638.035 133.985 637.386 132.462 C 635.738 128.593 634.385 122.102 633.378 112.735 C 633.240 111.486 633.106 110.207 632.943 108.601 C 632.883 108.021 632.606 105.290 632.530 104.548 C 631.602 95.478 630.947 90.858 629.795 86.759 C 628.998 83.915 627.998 81.648 626.613 79.869 C 624.714 77.433 622.106 76.000 619.041 76.000 C 616.059 76.000 613.460 77.300 611.170 79.523 C 609.559 81.088 608.098 83.095 606.485 85.784 C 605.771 86.975 605.061 88.236 604.093 90.012 C 603.828 90.496 602.876 92.257 602.920 92.176 C 602.450 93.040 602.093 93.692 601.743 94.326 C 600.533 96.504 599.524 98.200 598.517 99.711 C 593.456 107.302 589.041 109.624 579.916 109.624 L 580.013 109.624 L 569.856 109.435 C 566.987 109.380 564.616 111.664 564.563 114.532 C 564.510 117.401 566.791 119.772 569.660 119.825 Z" />
        </g>
    </g>
</svg>